<svg xmlns="http://www.w3.org/2000/svg" viewBox="0 0 380 380"><defs><style>.cls-1{fill:#499cd0;}.cls-2{fill:none;stroke:#000;stroke-miterlimit:10;}.cls-3{fill:#fff;}</style></defs><title>drive-icon_1</title><g id="Layer_2" data-name="Layer 2"><g id="Layer_1-2" data-name="Layer 1"><path class="cls-1" d="M380,190A190,190,0,1,1,51,60.46,192.57,192.57,0,0,1,70.85,42,189.24,189.24,0,0,1,190,0C294.93,0,380,85.07,380,190Z"/><path d="M189.5,46.5A143,143,0,0,0,160,329.44c1.55.34,3.1.64,4.67.91a142,142,0,0,0,22.17,2.12c.87,0,1.76,0,2.64,0a143,143,0,0,0,0-286ZM299.89,202.07a110.07,110.07,0,0,1-84.33,95.56c-1.65.39-3.32.74-5,1a110.9,110.9,0,0,1-39.52.11c-1.7-.3-3.38-.65-5.05-1a110.07,110.07,0,0,1-84.48-92.36c-.06-.42-.12-.83-.17-1.25a110.69,110.69,0,0,1,4.3-47c.08-.26.16-.53.25-.79a110,110,0,0,1,209.25.09c.08.26.17.52.25.78a109.89,109.89,0,0,1,5.11,33.23q0,5.23-.49,10.33C300,201.25,299.93,201.66,299.89,202.07Z"/><path class="cls-2" d="M85.1,161.13a110.18,110.18,0,0,0,73.44,135"/><path class="cls-2" d="M296,158.08a110.15,110.15,0,0,1-72.44,138"/><path d="M326.48,197.44a142.27,142.27,0,0,0-26.37,3.39c-1.7.38-3.39.8-5,1.24-47.88,12.74-82.53,49.79-82.53,93.53,0,.68,0,1.35,0,2,0,.35,0,.7,0,1a83.12,83.12,0,0,0,6.84,30,136.35,136.35,0,0,1-30,3.82,136,136,0,0,1-21.69-2.12c-1.54-.27-3.05-.57-4.57-.91A82.61,82.61,0,0,0,169,299v-.17c0-.34,0-.69,0-1-.63-43.25-35.13-79.8-82.66-92.36q-2.52-.68-5.1-1.25a141.87,141.87,0,0,0-24.79-3.29,118,118,0,0,1,27-44.86l2.24.41c1.53.27,3.08.53,4.69.79,10.15,1.64,21.88,3,34.79,4.11,19.59,1.64,41.91,2.56,65.6,2.56,21.24,0,41.38-.74,59.44-2.08,15.15-1.12,28.82-2.65,40.46-4.51,1.6-.25,3.17-.51,4.69-.78,1.68-.3,3.32-.6,4.89-.91A118.59,118.59,0,0,1,326.48,197.44Z"/><rect x="121" y="147" width="136" height="76" rx="29.46" ry="29.46"/><circle class="cls-3" cx="189" cy="196" r="21"/></g></g></svg>