<svg xmlns="http://www.w3.org/2000/svg" viewBox="0 0 380 380"><defs><style>.cls-1{fill:#499cd0;}.cls-2{fill:#fff;}.cls-3{fill:#ff4a00;}.cls-4{fill:#22e900;}.cls-5{fill:#ffdc15;}.cls-6,.cls-8{fill:none;}.cls-6,.cls-7,.cls-8{stroke:#000;stroke-miterlimit:10;}.cls-8{stroke-width:10px;}</style></defs><title>join-icon_3</title><g id="Layer_2" data-name="Layer 2"><g id="Layer_1-2" data-name="Layer 1"><path class="cls-1" d="M380,190A190,190,0,1,1,51,60.46,192.57,192.57,0,0,1,70.85,42,189.24,189.24,0,0,1,190,0C294.93,0,380,85.07,380,190Z"/><path class="cls-2" d="M189,379.5A187.49,187.49,0,0,1,71.5,338.68V62.5h235V338.67A188.81,188.81,0,0,1,189,379.5Z"/><path d="M306,63V338.43a188.75,188.75,0,0,1-234,0V63H306m1-1H71V338.92a189.73,189.73,0,0,0,236,0V62Z"/><rect x="71" y="63" width="235" height="21"/><circle class="cls-3" cx="83" cy="73" r="3.5"/><circle class="cls-4" cx="109" cy="73" r="3.5"/><circle class="cls-5" cx="96" cy="73" r="3.5"/><rect class="cls-2" x="82.5" y="98.5" width="212" height="121"/><path d="M294,99V219H83V99H294m1-1H82V220H295V98Z"/><rect class="cls-1" x="82" y="237" width="60" height="60"/><rect class="cls-1" x="235" y="237" width="60" height="60"/><rect class="cls-1" x="159" y="237" width="60" height="60"/><line class="cls-6" x1="83" y1="307.5" x2="143" y2="307.5"/><line class="cls-6" x1="235" y1="307.5" x2="295" y2="307.5"/><line class="cls-6" x1="158" y1="308.5" x2="218" y2="308.5"/><line class="cls-6" x1="90" y1="320.5" x2="135.5" y2="320.5"/><line class="cls-6" x1="242" y1="320.5" x2="287.5" y2="320.5"/><line class="cls-6" x1="165" y1="320.5" x2="210.5" y2="320.5"/><polygon class="cls-7" points="350.14 222.29 349.99 222.4 328.01 227.32 316.06 248.7 315.69 248.98 299.55 187.31 350.14 222.29"/><line class="cls-8" x1="316.76" y1="211.24" x2="347.45" y2="255.69"/></g></g></svg>