<svg xmlns="http://www.w3.org/2000/svg" viewBox="0 0 380 380"><defs><style>.cls-1{fill:#499cd0;}.cls-2,.cls-3{fill:#fff;}.cls-2{stroke:#000;stroke-miterlimit:10;stroke-width:5px;}</style></defs><title>pick-up-icon</title><g id="Layer_2" data-name="Layer 2"><g id="Layer_1-2" data-name="Layer 1"><path class="cls-1" d="M380,190A190,190,0,1,1,51,60.46,192.57,192.57,0,0,1,70.85,42,189.24,189.24,0,0,1,190,0C294.93,0,380,85.07,380,190Z"/><path id="svg_2" data-name="svg 2" class="cls-2" d="M190.15,184a151.88,151.88,0,0,0-15.62-43.45c-5.05-9.55-10.9-18.36-16.31-27.62-1.81-3.09-3.37-6.36-5.1-9.56a46.58,46.58,0,0,1,.31-46.66c6.06-10.17,16.22-18.5,29.85-20.69a42.71,42.71,0,0,1,29,5.85,43.33,43.33,0,0,1,14.3,14.76,46.7,46.7,0,0,1,4.79,36.27c-1.07,3.81-2.8,7-4.33,10.39a163.93,163.93,0,0,1-10.52,18.8C205.3,140.17,194.77,158.64,190.15,184Z"/><ellipse id="svg_4" data-name="svg 4" class="cls-3" cx="190.53" cy="77.02" rx="15.08" ry="16.08"/><circle cx="191" cy="77" r="15"/><path d="M330.57,253.49A116.07,116.07,0,0,0,316,248.74c-19.86-4.8-39.93-8.09-60.47-7.58a12.83,12.83,0,0,1-6.23-1.39c-10.41-5.7-20.7-11.6-31-17.48-11.46-6.53-24-9.28-37-9.55-14.8-.31-29.63.28-44.44.56-3,.06-5.92.36-8.73-1.62-2.13-1.5-6-.35-6,1.44-.07,2.74-1.82,3.35-3.8,4.16-13.61,5.53-27.18,11.13-40.79,16.66a15.29,15.29,0,0,1-4.09,1q-11.68,1.3-23.38,2.43c-2.75.27-3.9,2.13-3,4.76a6.52,6.52,0,0,1-.08,2.77c-.26,1.82-.77,3.62-.86,5.44-.14,2.78.33,5.54-2.26,7.75-1,.84-1.47,2.75-1.52,4.19-.16,4.45-.46,9,.15,13.35a13.42,13.42,0,0,0,8.59,10.49c9.78,3.59,20.26,3.44,30.58,3.81,1-18.7,10.54-29.31,26-29a24.34,24.34,0,0,1,17.28,7.43c7.21,7.21,8.31,16.13,6.71,25.56H270.06c-2.23-19.08,7.13-32.37,23-33,17.15-.69,27.22,11.49,26.2,32.28,4.15-.47,8.25-.78,12.28-1.45,4.23-.71,5.91-3.34,5.72-7.66-.14-3.23,0-6.49.18-9.72s.41-6.3.58-9.45C338.29,259.35,335.66,255.47,330.57,253.49ZM168.39,242.61c-14.6-.39-29.21-.74-43.81-1.23a55,55,0,0,1-9.06-1.12c-3.4-.68-5.43-3.17-6.47-6.32-1.16-3.53,0-6.79,3.56-8,7-2.48,14.19-5.11,21.52-6.24,10.94-1.69,22.06-2.15,33.53-3.17,1.46,9.08,2.8,17.4,4.2,26.14C170.5,242.61,169.44,242.64,168.39,242.61Zm57.56.12h-18.8c-6.87,0-13.74,0-20.61-.05-.94,0-2.51-.42-2.73-1-2.85-7.84-5.52-15.75-8.43-24.23,20.41.48,38.7,4.67,54.46,17.89C225.63,236.28,225.16,239.08,226,242.73Z"/><path d="M106.82,262.18a24,24,0,1,0,24.26,23.92A24,24,0,0,0,106.82,262.18Zm0,41.38a17.38,17.38,0,1,1,17.45-17.45A17.39,17.39,0,0,1,106.86,303.56Z"/><path d="M294.33,262.17a24,24,0,1,0,24.18,23.92A23.78,23.78,0,0,0,294.33,262.17Zm.09,41.4a17.38,17.38,0,1,1,17.44-17.42A17.5,17.5,0,0,1,294.42,303.57Z"/><path class="cls-3" d="M171.85,242.61c-1.35,0-2.41,0-3.46,0-14.61-.39-29.21-.74-43.81-1.23a55.54,55.54,0,0,1-9.06-1.12c-3.41-.69-5.43-3.18-6.47-6.32-1.17-3.52,0-6.78,3.56-8,7-2.48,14.19-5.11,21.52-6.24,10.94-1.7,22.06-2.15,33.54-3.18Z"/><path class="cls-3" d="M229.84,235.31c-4.22,1-4.68,3.78-3.89,7.42h-18.8c-6.87,0-13.74,0-20.61-.05-.95,0-2.51-.42-2.73-1-2.86-7.84-5.52-15.76-8.43-24.23C195.8,217.89,214.08,222.08,229.84,235.31Z"/><path class="cls-3" d="M106.75,268.8a17.38,17.38,0,1,0,17.56,17.3A17.32,17.32,0,0,0,106.75,268.8Zm12.69,9.85,2.26,4.72h-8.36Zm-9.53-6.92,5.68,2.25-5.68,5.2Zm-15.28,6.09,5.82,5.55h-8C93.21,281.47,93.85,279.82,94.63,277.83Zm-.05,16.37-2.22-5.31h8Zm9.59,6.48-5.4-2.19,5.4-5Zm0-21.67-4.9-5.39,4.9-2Zm2.87,10.14c-1-1.43-2-2.27-1.94-3s1.24-1.39,1.94-2.07c.62.64,1.73,1.27,1.74,1.92C108.82,286.83,107.94,287.66,107.06,289.15Zm2.72,11.5V293.4l5,5.27Zm9.52-6.26-5.42-5.48h7.66Z"/><path class="cls-3" d="M294.39,268.8a17.38,17.38,0,1,0,17.47,17.35A17.43,17.43,0,0,0,294.39,268.8ZM307,278.41c.56,1.39,1.16,2.94,2,4.93h-7.47Zm-9.68-6.69,5.6,2.15-5.6,4.54ZM282,278.21l5.47,5.16h-7.58C280.76,281.32,281.4,279.78,282,278.21ZM279.95,289h7.94l-5.75,5.38Zm11.68,11.66-5.56-2.21,5.56-5.35Zm.09-21-5.08-5.92,5.08-1.93Zm2.87,9.4c-1-1.23-2.09-2-2-2.76s1.2-1.45,1.88-2.17c.72.67,1.92,1.28,2,2S295.48,287.7,294.59,289Zm2.7,11.69V293l4.85,5.75Zm9.48-6.24L301,289h8Z"/><path d="M121.7,283.37h-8.36l6.09-4.72Z"/><path d="M100.44,283.38h-8l2.17-5.55Z"/><path d="M104.16,293.49v7.19l-5.4-2.19Z"/><path d="M114.77,298.67l-5,2V293.4Z"/><path d="M100.4,288.89l-5.83,5.31-2.22-5.31Z"/><path d="M113.88,288.91h7.66l-2.24,5.48Z"/><path d="M115.59,274l-5.68,5.2v-7.45Z"/><path d="M104.19,271.65V279l-4.9-5.39Z"/><path d="M107.06,289.15c-1-1.43-2-2.27-1.94-3s1.24-1.39,1.93-2.08c.62.64,1.73,1.27,1.74,1.93C108.82,286.83,107.94,287.66,107.06,289.15Z"/><path d="M291.72,271.74v7.84l-5.08-5.91Z"/><path d="M306.76,294.44,301,289h8Z"/><path d="M297.36,271.71l5.59,2.15-5.59,4.53Z"/><path d="M307,278.41l2,4.92h-7.47Z"/><path d="M279.93,283.37l2.11-5.16,5.47,5.16Z"/><path d="M287.89,289l-5.75,5.37-2.2-5.37Z"/><path d="M291.63,300.62l-5.55-2.21,5.55-5.35Z"/><path d="M302.13,298.71l-4.85,2V293Z"/><path d="M294.58,289c-1-1.23-2.09-2-2-2.75s1.2-1.45,1.88-2.17c.72.67,1.93,1.29,2,2S295.47,287.7,294.58,289Z"/></g></g></svg>