<svg xmlns="http://www.w3.org/2000/svg" viewBox="0 0 380 380"><defs><style>.cls-1{fill:#499cd0;}.cls-2{fill:#fff;}.cls-3{font-size:50px;}.cls-3,.cls-7{font-family:MyriadPro-Regular, Myriad Pro;}.cls-4{letter-spacing:-0.03em;}.cls-5{letter-spacing:0em;}.cls-6{letter-spacing:-0.01em;}.cls-7{font-size:100px;}.cls-8,.cls-9{stroke:#000;stroke-miterlimit:10;}.cls-9{fill:none;stroke-width:10px;}</style></defs><title>reserve-icon</title><g id="Layer_2" data-name="Layer 2"><g id="Layer_1-2" data-name="Layer 1"><path class="cls-1" d="M380,190A190,190,0,1,1,51,60.46,192.57,192.57,0,0,1,70.85,42,189.24,189.24,0,0,1,190,0C294.93,0,380,85.07,380,190Z"/><rect class="cls-2" x="77" y="74" width="227" height="227" rx="46.34" ry="46.34"/><text class="cls-3" transform="translate(126.59 139.1)"><tspan class="cls-4">F</tspan><tspan class="cls-5" x="23.05" y="0">r</tspan><tspan x="39.6" y="0">id</tspan><tspan class="cls-6" x="79.5" y="0">a</tspan><tspan x="103.2" y="0">y</tspan></text><text class="cls-7" transform="translate(138.59 245.1)">22</text><polygon class="cls-8" points="334.14 214.29 333.99 214.4 312.01 219.32 300.06 240.7 299.69 240.98 283.55 179.31 334.14 214.29"/><line class="cls-9" x1="300.76" y1="203.24" x2="331.45" y2="247.69"/></g></g></svg>